<svg width="1456" height="172" viewBox="0 0 1456 172" fill="none" xmlns="http://www.w3.org/2000/svg">
<path d="M97.0017 103.175L80.7717 45.9028L64.5207 103.175L54.6607 138.879L46.2513 166.953H0L53.9248 4.63745H107.618L161.313 166.953H115.754L107.513 138.879L97.0017 103.175Z" fill="black"/>
<path d="M790.691 103.194L774.46 45.9226L758.21 103.194L748.223 138.899L739.813 166.973H693.773L747.677 4.65723H801.391L855.086 166.973H809.401L801.182 138.899L790.691 103.194Z" fill="black"/>
<path d="M1111.51 103.175L1095.32 45.9028L1079.03 103.175L1069.04 138.879L1060.64 166.953H1014.49L1068.41 4.63745H1122.11L1175.82 166.953H1130.24L1122.02 138.879L1111.51 103.175Z" fill="black"/>
<path d="M178.694 4.65723H243.655C245.107 4.65723 248.344 4.8364 253.41 5.21955C258.928 5.74111 264.335 7.1922 269.43 9.5188C276.472 12.7559 282.729 17.6772 287.721 23.9052C293.327 30.5543 296.131 40.3691 296.131 53.3511C296.131 67.5642 292.991 78.3405 286.711 85.6801C281.061 92.5914 273.975 97.9891 266.025 101.439C265.752 101.59 265.462 101.704 265.163 101.775C264.864 101.863 264.575 101.984 264.3 102.137L306.746 167.063H253.137L223.242 117.198V167.063H178.694V4.65723ZM231.547 77.6879C238.764 77.6879 243.816 75.909 246.703 72.3514C249.438 69.155 251.109 65.0787 251.455 60.7577V56.5926C250.96 52.4012 249.212 48.4925 246.473 45.4491C243.6 42.043 238.624 40.3472 231.547 40.3618H223.304V77.6879H231.547Z" fill="black"/>
<path d="M346.684 43.6033H313.257V4.65723H424.681V43.6033H391.296V166.973H346.684V43.6033Z" fill="black"/>
<path d="M682.501 72.8369C682.648 74.3899 682.754 76.1687 682.836 78.1719C682.921 80.1765 682.942 82.27 682.942 84.4305C682.942 89.0677 682.69 94.1565 682.186 99.7391C681.648 105.459 680.669 111.121 679.262 116.669C675.313 131.015 667.919 144.001 657.819 154.332C647.139 165.694 630.251 171.374 607.153 171.374L605.051 171.622C583.837 171.893 563.185 164.314 546.585 150.168C529.977 136.029 521.672 114.965 521.672 86.9741C521.672 61.1456 528.855 40.2005 543.222 24.1416C557.587 8.08269 577.209 0.0467007 602.086 0.0306753H604.189C618.669 -0.228645 633.009 3.09876 646.088 9.75657C658.305 16.1303 668.284 26.5396 674.553 39.4502L636.985 58.1809H634.883C632.202 52.3768 627.992 47.5401 622.773 44.268C615.628 39.813 607.293 38.0559 599.104 39.2811C590.914 40.5064 583.346 44.6409 577.615 51.022C570.019 58.9909 566.227 70.6225 566.242 85.9165C566.256 101.211 570.046 113.307 577.615 122.207C581.157 126.42 585.48 129.798 590.31 132.124C595.138 134.449 600.366 135.672 605.661 135.715C613.326 135.629 620.763 132.906 626.873 127.948C632.782 123.117 636.86 116.161 638.352 108.362H598.933V72.8369H682.501Z" fill="black"/>
<path d="M872.222 4.65723H937.183C938.613 4.65723 941.872 4.8364 946.918 5.21955C952.443 5.73673 957.856 7.18929 962.958 9.5188C969.996 12.7647 976.251 17.6845 981.248 23.9052C986.854 30.5543 989.657 40.3691 989.657 53.3511C989.657 67.5642 986.511 78.3405 980.218 85.6801C974.579 92.5958 967.499 97.9934 959.553 101.439C959.278 101.586 958.989 101.7 958.69 101.775C958.386 101.866 958.091 101.987 957.808 102.137L1000.25 167.063H946.707L916.832 117.107V166.973H872.222V4.65723ZM925.031 77.6879C932.243 77.6879 937.309 75.909 940.189 72.3514C942.93 69.155 944.607 65.0802 944.962 60.7577V56.5926C944.447 52.407 942.702 48.5041 939.979 45.4491C937.078 42.043 932.096 40.3472 925.031 40.3618H916.832V77.6879H925.031Z" fill="black"/>
<path d="M1336.71 72.8204C1336.85 74.3734 1336.96 76.1523 1337.04 78.1555C1337.13 80.1587 1337.04 82.2521 1337.04 84.4141C1337.04 89.0512 1336.79 94.14 1336.28 99.7227C1335.75 105.442 1334.77 111.104 1333.36 116.651C1329.41 130.998 1322.02 143.985 1311.92 154.315C1301.24 165.677 1284.35 171.358 1261.25 171.358L1259.15 171.605C1237.94 171.876 1217.28 164.298 1200.69 150.15C1184.08 136.013 1175.77 114.948 1175.77 86.9578C1175.77 61.1278 1182.95 40.184 1197.32 24.1251C1211.69 8.06623 1231.31 0.0287892 1256.19 0.0142207H1258.29C1272.77 -0.246556 1287.11 3.08239 1300.19 9.74021C1312.42 16.1052 1322.42 26.5158 1328.7 39.4337L1291.23 58.1645H1289.13C1286.45 52.3546 1282.23 47.5164 1277 44.2516C1269.86 39.7936 1261.53 38.0367 1253.34 39.2604C1245.15 40.4856 1237.59 44.6216 1231.86 51.0055C1224.27 58.9745 1220.47 70.606 1220.49 85.9001C1220.5 101.193 1224.29 113.29 1231.86 122.19C1235.4 126.403 1239.73 129.782 1244.56 132.107C1249.38 134.432 1254.61 135.656 1259.91 135.698C1267.57 135.612 1275.01 132.889 1281.12 127.93C1287.03 123.101 1291.11 116.144 1292.6 108.344H1253.12V72.8204H1336.71Z" fill="black"/>
<path d="M1362.89 4.67749H1456V43.625H1407.5V66.3402H1451.46V102.067H1407.5V127.98H1456V166.949H1362.89V4.67749Z" fill="black"/>
<path d="M552.523 67.3882C552.523 62.7627 549.022 59.0127 544.702 59.0127C540.383 59.0127 536.882 62.7627 536.882 67.3882V91.7919C536.882 96.4159 540.383 100.166 544.702 100.166C549.022 100.166 552.523 96.4159 552.523 91.7919V67.3882Z" fill="black"/>
</svg>
